<svg width="16" height="16" viewBox="0 0 16 16" fill="none" xmlns="http://www.w3.org/2000/svg">
<g clip-path="url(#clip0_13971_6676)">
<path d="M6 2C6 0.920123 6.92012 0 8 0H14C15.0799 0 16 0.920123 16 2V8C16 9.07988 15.0799 10 14 10H11V9H14C14.5691 9 15 8.5691 15 8V2C15 1.4309 14.5691 1 14 1H8C7.4309 1 7 1.4309 7 2V5H6V2ZM8.84375 4.9375L9.34375 4.4375L10.5312 5.59375L13.3125 2.8125L14.1562 3.6875L11.0625 6.75C10.6473 5.83655 9.80992 5.17904 8.84375 4.9375ZM2 16C0.920123 16 0 15.0799 0 14V8C0 6.92012 0.920123 6 2 6H8C9.07988 6 10 6.92012 10 8V14C10 15.0799 9.07988 16 8 16H2ZM1 14C1 14.5691 1.4309 15 2 15H8C8.5691 15 9 14.5691 9 14V8C9 7.4309 8.5691 7 8 7H2C1.4309 7 1 7.4309 1 8V14ZM2.15625 11.4375L3.03125 10.625L4.1875 11.7812L6.96875 9L7.84375 9.875L4.1875 13.4688L2.15625 11.4375Z" fill="black"/>
</g>
<defs>
<clipPath id="clip0_13971_6676">
<rect width="16" height="16" fill="white"/>
</clipPath>
</defs>
</svg>
