<svg width="16" height="16" viewBox="0 0 16 16" fill="none" xmlns="http://www.w3.org/2000/svg">
<path d="M9.45038 7.0625C11.9423 9.41608 14.1233 11.6875 15.7817 14.75C13.8178 12.1427 10.8903 10.1422 8.20284 8.25C6.2089 10.2479 3.89721 12.3787 1.76705 14.0806C1.30763 14.3926 0.88279 14.5562 0.405675 14.2812C-0.118486 13.7936 -0.0949075 13.2943 0.249732 12.7188C1.46516 10.689 4.0304 8.55764 6.23795 6.9375C5.5306 6.4434 0.665472 3.4652 0.33082 2.76977C0.12516 2.34239 0.0866257 1.82207 0.280921 1.5625C0.53043 1.22917 0.83192 1.0625 1.18539 1.0625C2.37598 1.11214 6.16152 4.1957 8.04689 5.78125C10.5886 4.13651 13.333 2.62231 16 1.34375C14.4056 2.31325 11.4593 5.0496 9.45038 7.0625Z" fill="black"/>
</svg>
