<svg width="16" height="16" viewBox="0 0 16 16" fill="none" xmlns="http://www.w3.org/2000/svg">
<g clip-path="url(#clip0_14690_5698)">
<path d="M15.537 3.43759C15.662 3.39593 15.7871 3.38551 15.9121 3.46884C16.0569 3.56534 15.998 3.69805 15.9121 3.81259C13.8488 6.8126 12.3587 8.52094 11.4417 8.9376C10.5733 9.35099 9.77456 9.32832 8.97205 8.78135C8.37186 8.37228 7.48725 7.6876 6.68996 7.6876C5.93969 7.6876 4.85595 8.27094 3.43877 9.4376L5.0331 15.7189H3.2512L0 2.93759L1.65686 2.34384C2.51012 1.71244 4.94148 0.336812 5.68959 0.656337C7.52999 1.44201 8.38897 3.46884 10.1913 4.1876C11.6352 4.76345 14.0274 4.03374 15.537 3.43759Z" fill="black"/>
</g>
<defs>
<clipPath id="clip0_14690_5698">
<rect width="16" height="16" fill="white"/>
</clipPath>
</defs>
</svg>
