<svg width="16" height="16" viewBox="0 0 16 16" fill="none" xmlns="http://www.w3.org/2000/svg">
<g clip-path="url(#clip0_14774_2144)">
<path d="M9.42855 7.89836C10.3923 7.18492 11.1875 6.59625 11.1875 5.54658C11.1875 3.79081 9.55162 3 8.0625 3C6.21796 3 4.8125 4.08477 4.8125 5.85714V6.13665H6.3125V5.6087C6.37523 4.73599 7.1875 4.24224 8 4.24224C8.77127 4.24224 9.5625 4.70394 9.5625 5.54658C9.5625 6.16895 9.03903 6.5933 8.51506 7.01805C8.26115 7.22387 8.00713 7.42979 7.8125 7.65839C7.35417 8.19669 7.09375 8.86957 7.09375 9.61491C7.09375 9.81386 7.10779 9.98126 7.15625 10.1739H8.59375V9.89441C8.59375 9.88018 8.59374 9.86583 8.59373 9.85137C8.59341 9.26129 8.59299 8.49025 9.125 8.12422C9.22752 8.04717 9.32893 7.9721 9.42855 7.89836Z" fill="black"/>
<path d="M7.125 11.6335V13H8.75V11.6335H7.125Z" fill="black"/>
<path d="M0 8C0 3.58172 3.58172 0 8 0C12.4183 0 16 3.58172 16 8C16 12.4183 12.4183 16 8 16C3.58172 16 0 12.4183 0 8ZM8 15.3C12.0317 15.3 15.3 12.0317 15.3 8C15.3 3.96832 12.0317 0.7 8 0.7C3.96832 0.7 0.7 3.96832 0.7 8C0.7 12.0317 3.96832 15.3 8 15.3Z" fill="black"/>
</g>
<defs>
<clipPath id="clip0_14774_2144">
<rect width="16" height="16" fill="white"/>
</clipPath>
</defs>
</svg>
