<svg width="16" height="16" viewBox="0 0 16 16" fill="none" xmlns="http://www.w3.org/2000/svg">
<g clip-path="url(#clip0_14774_2097)">
<path d="M11 6.03125H1V4.46875L4 2.875V1.3125L4.75 0.53125H11.0625L12 1.3125V2.875L15 4.46875V6.03125H13.5V5.03125H12.5V6.03125H12V5.03125H11V6.03125ZM10.5 3.03125L9 1.53125H5.5V3.03125H10.5ZM15 7.03125C15.3715 7.03125 16 7.15558 16 7.625V10.8125C16 11.293 15.4111 11.5312 15 11.5312H13.4062L14.2188 15.5312H1.59375L2.375 11.5312H0.78125C0.357586 11.5312 0 11.2546 0 10.8125V7.625C0 7.20321 0.408454 7.03125 0.78125 7.03125H15ZM3 8.5625V7.53125H1.5V8.5625H3ZM12.625 14.0312L11.0625 8.5625H4.75L3.15625 14.0312H6.3125L7.09375 13.0312H8.6875L9.46875 14.0312H12.625ZM5.5 10.5312V9.5625H10.5V10.5312H5.5ZM5.5 12.0312V11.0312H10.5V12.0312H5.5Z" fill="black"/>
</g>
<defs>
<clipPath id="clip0_14774_2097">
<rect width="16" height="16" fill="white"/>
</clipPath>
</defs>
</svg>
