<svg width="16" height="16" viewBox="0 0 16 16" fill="none" xmlns="http://www.w3.org/2000/svg">
<g clip-path="url(#clip0_14775_6550)">
<path d="M3.82195 6.14371C3.82195 2.81104 6.52362 0.109375 9.85629 0.109375C13.189 0.109375 15.8906 2.81104 15.8906 6.14371C15.8906 9.47639 13.189 12.1781 9.85629 12.1781C8.43688 12.1781 7.13193 11.688 6.10142 10.8678L5.57813 11.4219C5.84828 11.8541 5.74321 12.3818 5.39063 12.7344L2.54688 15.5781C2.11582 16.0092 1.39305 15.9781 0.953132 15.5781L0.421882 15.0469C0.0219577 14.607 -0.00917935 13.8842 0.421882 13.4531L3.26563 10.6094C3.61821 10.2568 4.14589 10.1517 4.57813 10.4219L5.1322 9.89859C4.31203 8.86808 3.82195 7.56313 3.82195 6.14371ZM9.85629 11.0781C12.5815 11.0781 14.7906 8.86887 14.7906 6.14371C14.7906 3.41856 12.5815 1.20938 9.85629 1.20938C7.13113 1.20938 4.92195 3.41856 4.92195 6.14371C4.92195 8.86887 7.13113 11.0781 9.85629 11.0781Z" fill="black"/>
</g>
<defs>
<clipPath id="clip0_14775_6550">
<rect width="16" height="16" fill="white"/>
</clipPath>
</defs>
</svg>
