<svg width="16" height="16" viewBox="0 0 16 16" fill="none" xmlns="http://www.w3.org/2000/svg">
<g clip-path="url(#clip0_14762_973)">
<path d="M7.19705 1.01638C6.83182 2.01369 6.42338 3.07573 5.47288 3.65231C4.44195 4.1837 3.3743 3.99333 2.28348 3.8621C1.95452 4.29057 1.7926 4.59571 1.54736 5.15627C2.22285 6.02554 2.99136 6.80236 3.04701 7.9717C3.10699 9.23205 2.30262 10.0701 1.62174 11.0109L0.814368 10.4199C1.34492 9.68676 2.0964 9.00397 2.04956 8.01972C1.99763 6.92845 1.00592 6.11286 0.400391 5.29423C0.780274 4.40514 1.2302 3.56571 1.8421 2.8129C2.86812 2.89733 4.01416 3.26886 4.9862 2.77453C5.88363 2.21742 6.10726 1.00098 6.49255 0.0967795C7.49661 -0.0438579 8.48477 -0.0302457 9.48739 0.131272C9.90733 0.983543 10.0889 2.1279 10.9841 2.62922C11.7221 3.04248 12.5476 2.85465 13.3359 2.72606L13.4947 3.71764C12.5518 3.87039 11.5634 4.10314 10.4983 3.50673C9.53086 2.96497 9.21453 1.9998 8.81284 1.04329C8.16531 0.956827 7.68163 0.963732 7.19705 1.01638Z" fill="black"/>
<path d="M8.80373 14.9837C9.16781 13.9896 9.57996 12.9228 10.5279 12.3478C11.5457 11.8232 12.632 12.0075 13.7173 12.138C14.0463 11.7096 14.2082 11.4044 14.4534 10.8439C13.7829 9.98099 13.0091 9.19088 12.9538 8.02842C12.8922 6.73435 13.6792 5.95623 14.379 4.98918L15.1864 5.58022C14.6406 6.33448 13.9031 6.9686 13.9512 7.9804C14.0035 9.07933 14.988 9.87802 15.6004 10.7059C15.218 11.6009 14.7727 12.4319 14.1587 13.1872C13.103 13.1004 12.0182 12.7152 11.0146 13.2256C10.1078 13.7885 9.90047 14.9828 9.50824 15.9033C8.50356 16.0441 7.51318 16.0299 6.51339 15.8688C6.09571 15.0212 5.89758 13.8642 5.0167 13.3709C4.27871 12.9576 3.45318 13.1455 2.66491 13.2741L2.50611 12.2825C3.44888 12.1297 4.43759 11.8971 5.50247 12.4934C6.47482 13.0379 6.78404 13.9951 7.18794 14.9568C7.83547 15.0433 8.31915 15.0364 8.80373 14.9837Z" fill="black"/>
<path d="M5.00034 8.00889C5.00034 6.34481 6.34159 4.99581 7.99611 4.99581C9.65063 4.99581 10.9919 6.34481 10.9919 8.00889C10.9919 9.67296 9.65063 11.022 7.99611 11.022C6.34159 11.022 5.00034 9.67296 5.00034 8.00889ZM7.99611 10.0176C9.09912 10.0176 9.99329 9.11827 9.99329 8.00889C9.99329 6.8995 9.09912 6.00017 7.99611 6.00017C6.8931 6.00017 5.99893 6.8995 5.99893 8.00889C5.99893 9.11827 6.8931 10.0176 7.99611 10.0176Z" fill="black"/>
</g>
<defs>
<clipPath id="clip0_14762_973">
<rect width="16" height="16" fill="white"/>
</clipPath>
</defs>
</svg>
