<svg width="16" height="16" viewBox="0 0 16 16" fill="none" xmlns="http://www.w3.org/2000/svg">
<path d="M14.8438 1.75L1.90625 15L1.15625 14.25L14.0938 1L14.8438 1.75ZM2.90625 10.9688C2.1765 10.4694 0.674306 9.16726 0.5 8.25C1.90625 5.21597 5.46274 4.03125 8 4.03125C8.56409 4.03125 9.08161 4.0761 9.5625 4.15625L8.65625 5.0625C8.44839 5.02093 8.21214 5 8 5C6.21424 5 4.65625 6.43947 4.65625 8.25C4.65625 8.52128 4.69115 8.79219 4.78125 9.0625L2.90625 10.9688ZM12.7812 5.375C13.65 5.81871 15.1903 7.20836 15.5 8.25C14.3197 11.1764 10.6195 12.5 8 12.5C7.29167 12.5 6.625 12.4062 6 12.2812L6.9375 11.3438C7.29044 11.4761 7.62306 11.5312 8 11.5312C9.80626 11.5312 11.3438 10.076 11.3438 8.25C11.3438 7.81122 11.2524 7.41951 11.0938 7.0625L12.7812 5.375ZM9.625 8.5625C9.5625 8.875 9.41667 9.14583 9.1875 9.375C8.97917 9.60417 8.71875 9.76042 8.40625 9.84375L9.625 8.5625Z" fill="black"/>
</svg>
