<svg viewBox="0 0 24 24" fill="none" xmlns="http://www.w3.org/2000/svg">
<path fill-rule="evenodd" clip-rule="evenodd" d="M10.8475 11L9.76396 9H4.23624L3.15266 11H2L6.33433 3H7.66587L12.0002 11H10.8475ZM9.22217 8H4.77803L7.0001 3.89866L9.22217 8ZM9.49997 14H6.24997C5.28347 14 4.49997 14.7835 4.49997 15.75C4.49997 16.7165 5.28347 17.5 6.24997 17.5H9.49997V14ZM9.49997 13H6.24997C4.73119 13 3.49997 14.2312 3.49997 15.75C3.49997 17.0496 4.40147 18.1387 5.61324 18.4259L3.50046 20.9999H4.79419L6.84617 18.5H9.49997V21H10.5V18.5V17.5V14V13H9.49997ZM17.9908 3H18.9885V19.086L21.6357 16.4329L22.3411 17.1409L18.4917 21L14.6411 17.1409L15.3465 16.4329L17.9908 19.086V3Z" fill="#333333"/>
</svg>
