<svg viewBox="0 0 24 24" fill="none" xmlns="http://www.w3.org/2000/svg">
<path fill-rule="evenodd" clip-rule="evenodd" d="M16.9908 21H17.9885V4.914L20.6357 7.56711L21.3411 6.8591L17.4917 3L13.6411 6.8591L14.3465 7.56711L16.9908 4.914V21ZM10.5 21H9.41667L8.65833 18.8815H5.84167L5.08333 21H4L6.925 13.5707L7.575 13.5709L10.5 21ZM7.25 14.7481L7.03333 15.9056L6.16667 18.0283H8.33333L7.46667 15.9056L7.25 14.7481ZM9.15782 4.03077C9.44439 4.052 9.72278 4.09341 9.99766 4.15709H10V11.4293H9.07829V8.23049L7.93315 8.46181L6.00081 11.4314H4.91183L6.64297 8.81952L7.32022 8.36736C7.05353 8.31111 6.80908 8.22516 6.58333 8.10948C6.35757 7.99486 6.15988 7.84835 5.99378 7.66899C5.82535 7.49068 5.69668 7.28267 5.60544 7.04387C5.51304 6.8072 5.46626 6.53448 5.46626 6.22669C5.46626 5.80004 5.54112 5.44446 5.69318 5.16109C5.84291 4.87665 6.05228 4.64846 6.31546 4.47865C6.57864 4.30671 6.88627 4.18361 7.23718 4.11038C7.58925 4.03609 7.96006 4 8.35308 4C8.60456 4 8.87358 4.00954 9.15782 4.03077ZM9.07477 4.81932C8.97184 4.79809 8.86305 4.78325 8.75193 4.77158C8.64081 4.76096 8.49344 4.75564 8.30746 4.75564C8.06299 4.75564 7.82905 4.77793 7.60915 4.82463C7.38574 4.86921 7.18688 4.94881 7.01259 5.05919C6.83948 5.17382 6.70028 5.32243 6.59618 5.51135C6.49207 5.70026 6.44295 5.93797 6.44295 6.22559C6.44295 6.49093 6.49209 6.71912 6.59034 6.90803C6.6921 7.09589 6.82661 7.25193 6.99739 7.37398C7.16699 7.49604 7.36702 7.5852 7.5916 7.64146C7.81853 7.69877 8.05947 7.72528 8.31797 7.72528H9.07477V4.81932Z" fill="black"/>
</svg>
