<svg viewBox="0 0 24 24" xmlns="http://www.w3.org/2000/svg">
<path fill-rule="evenodd" clip-rule="evenodd" d="M13.7565 8.5H10.1478L9.2 11H8L11.7 2H12.3L16 11H14.8L13.7565 8.5ZM10.5 7.5H13.5L12.3008 4.9L11.9961 3.5L11.6953 4.9L10.5 7.5ZM11.3126 13.1302C11.729 13.0426 12.1676 13 12.6324 13C12.9298 13 13.6328 13 14.0432 13.0363C14.3822 13.0613 14.6749 13.1101 15 13.1852V22H13.9927V17.9884L12.1357 18.2612L9.80947 22H8.5L10.6098 18.683L11.4108 18.1498C11.0954 18.0835 10.8063 17.9821 10.5393 17.8457C10.2723 17.7106 10.0385 17.5378 9.84204 17.3263C9.64283 17.1161 9.49066 16.8708 9.38275 16.5892C9.27346 16.3101 9.21814 15.9885 9.21814 15.6256C9.21814 15.1225 9.30668 14.7032 9.48652 14.3691C9.6636 14.0337 9.91123 13.7646 10.2225 13.5644C10.5338 13.3617 10.8976 13.2165 11.3126 13.1302ZM12.5923 17.3927H13.9927V13.9661C13.8802 13.943 13.7197 13.9263 13.5923 13.913C13.5819 13.9119 13.5717 13.9108 13.5618 13.9098C13.3608 13.8887 13.0116 13.8898 12.7301 13.8907C12.6771 13.8909 12.6266 13.891 12.5798 13.891C12.1875 13.891 12.014 13.9173 11.7539 13.9724C11.4897 14.0249 11.2545 14.1188 11.0484 14.249C10.8436 14.3841 10.679 14.5593 10.5559 14.7821C10.4328 15.0049 10.3747 15.2852 10.3747 15.6243C10.3747 15.9372 10.4328 16.2063 10.549 16.429C10.6693 16.6505 10.8284 16.8345 11.0304 16.9785C11.231 17.1224 11.4676 17.2275 11.7332 17.2938C12.0016 17.3614 12.2865 17.3927 12.5923 17.3927Z" />
</svg>
