<svg viewBox="0 0 24 24" fill="none" xmlns="http://www.w3.org/2000/svg">
<path fill-rule="evenodd" clip-rule="evenodd" d="M16.9908 3H17.9885V19.086L20.6357 16.4329L21.3411 17.1409L17.4917 21L13.6411 17.1409L14.3465 16.4329L16.9908 19.086V3ZM7.07068 4H7.49921L10.5 11.4366H9.50662L8.69884 9.40851H5.8046L5.01859 11.4366H4.08135L7.07068 4ZM6.97099 6.44771L6.10708 8.65421V8.65531H8.41812L7.54046 6.42748L7.26433 5.31732H7.25057L6.97099 6.44771ZM6.2778 13.6718C6.62268 13.5974 6.98591 13.5613 7.37089 13.5613C7.61723 13.5613 7.88075 13.5719 8.16146 13.5921C8.44218 13.6133 8.71488 13.6548 8.98413 13.7185V20.9979H8.08127V17.7959L6.95954 18.0275L5.06672 21H4L5.69575 18.3855L6.35915 17.9329C6.09791 17.8766 5.85846 17.7906 5.63732 17.6748C5.41619 17.5601 5.22253 17.4134 5.05983 17.2339C4.89484 17.0554 4.7688 16.8472 4.67943 16.6081C4.58892 16.3712 4.5431 16.0983 4.5431 15.7902C4.5431 15.3631 4.61643 15.0072 4.76538 14.7235C4.91204 14.4388 5.11713 14.2104 5.37493 14.0404C5.63273 13.8683 5.93407 13.7451 6.2778 13.6718ZM7.33765 17.2902H8.07898V14.3814C7.97815 14.3602 7.87159 14.3453 7.76274 14.3336C7.65274 14.323 7.50837 14.3177 7.32734 14.3177C7.08787 14.3177 6.85871 14.34 6.64331 14.3867C6.42446 14.4314 6.22969 14.511 6.05896 14.6215C5.88939 14.7363 5.75304 14.885 5.65106 15.0741C5.54909 15.2632 5.50097 15.5012 5.50097 15.7891C5.50097 16.0547 5.54908 16.2831 5.64533 16.4722C5.74501 16.6602 5.87678 16.8164 6.04407 16.9386C6.21021 17.0607 6.40613 17.15 6.62612 17.2063C6.8484 17.2637 7.08443 17.2902 7.33765 17.2902Z" fill="black"/>
</svg>
