<svg viewBox="0 0 24 24" fill="none" xmlns="http://www.w3.org/2000/svg">
<path fill-rule="evenodd" clip-rule="evenodd" d="M14.764 9L15.8475 11H17.0002L12.6659 3H11.3343L7 11H8.15266L9.23624 9H14.764ZM9.77803 8H14.2222L12.0001 3.89866L9.77803 8ZM11.25 14H14.5V17.5H11.25C10.2835 17.5 9.49997 16.7165 9.49997 15.75C9.49997 14.7835 10.2835 14 11.25 14ZM11.25 13H14.5H15.5V14V17.5V18.5V21H14.5V18.5H11.8462L9.79419 20.9999H8.50046L10.6132 18.4259C9.40147 18.1387 8.49997 17.0496 8.49997 15.75C8.49997 14.2312 9.73119 13 11.25 13Z" fill="#333333"/>
</svg>
