<svg viewBox="0 0 24 24" fill="none" xmlns="http://www.w3.org/2000/svg">
<path fill-rule="evenodd" clip-rule="evenodd" d="M9.76396 9L10.8475 11H12.0002L7.66587 3H6.33433L2 11H3.15266L4.23624 9H9.76396ZM7.0001 3.89866L4.77803 8H9.22217L7.0001 3.89866Z" fill="#333333"/>
<path fill-rule="evenodd" clip-rule="evenodd" d="M6.24997 13H10.5V21H9.49997V18.5H6.84617L4.79419 20.9999H3.50046L5.61324 18.4259C4.40147 18.1387 3.49997 17.0496 3.49997 15.75C3.49997 14.2312 4.73119 13 6.24997 13ZM6.24997 14H9.49997V17.5H6.24997C5.28347 17.5 4.49997 16.7165 4.49997 15.75C4.49997 14.7835 5.28347 14 6.24997 14Z" fill="#333333"/>
<path d="M18.9885 21H17.9908V4.914L15.3465 7.56711L14.6411 6.8591L18.4917 3L22.3411 6.8591L21.6357 7.56711L18.9885 4.914V21Z" fill="#333333"/>
</svg>
