<svg width="24" height="24" viewBox="0 0 24 24" fill="none" xmlns="http://www.w3.org/2000/svg">
<path d="M18.2483 11.2274C18.6682 11.2274 19 11.6133 19 12.0234C19 12.4536 18.6728 12.7726 18.2483 12.7726H12.7987V18.204C12.7987 18.639 12.4342 19 12 19C11.5658 19 11.2013 18.639 11.2013 18.204V12.7726H5.75168C5.29365 12.7726 5 12.4822 5 12.0234C5 11.5843 5.29691 11.2274 5.75168 11.2274H11.2013V5.79599C11.2013 5.36098 11.5658 5 12 5C12.4342 5 12.7987 5.36098 12.7987 5.79599V11.2274H18.2483Z" fill="black"/>
</svg>
