<svg width="24" height="24" viewBox="0 0 24 24" fill="none" xmlns="http://www.w3.org/2000/svg">
<path d="M17.3437 16.6563C17.5325 16.845 17.5308 17.1724 17.3437 17.3594C17.1054 17.5978 16.9029 17.3594 16.6406 17.3594L12 12.7188L7.3125 17.3594C7.1683 17.5036 6.79868 17.5019 6.65625 17.3594C6.46918 17.1724 6.46752 16.845 6.65625 16.6563L11.2969 12.0157L6.65625 7.37506C6.46875 7.12506 6.46875 6.87506 6.65625 6.62506C6.84332 6.43799 7.17064 6.43633 7.35937 6.62506L12 11.3126L16.6406 6.62506C16.8277 6.43799 17.155 6.43633 17.3437 6.62506C17.5312 6.87506 17.5312 7.12506 17.3437 7.37506L12.7031 12.0157L17.3437 16.6563Z" fill="black"/>
</svg>
