<svg width="16" height="16" viewBox="0 0 16 16" fill="none" xmlns="http://www.w3.org/2000/svg">
<path fill-rule="evenodd" clip-rule="evenodd" d="M14 1H8C7.44772 1 7 1.44772 7 2V5H6V2C6 0.89543 6.89543 0 8 0H14C15.1046 0 16 0.895431 16 2V8C16 9.10457 15.1046 10 14 10H11V9H14C14.5523 9 15 8.55229 15 8V2C15 1.44772 14.5523 1 14 1ZM8 7H2C1.44772 7 1 7.44772 1 8V14C1 14.5523 1.44772 15 2 15H8C8.55229 15 9 14.5523 9 14V8C9 7.44772 8.55229 7 8 7ZM2 6C0.895431 6 0 6.89543 0 8V14C0 15.1046 0.89543 16 2 16H8C9.10457 16 10 15.1046 10 14V8C10 6.89543 9.10457 6 8 6H2ZM3.02816 10.6112L4.19248 11.7728L6.97182 9L7.83567 9.86183L4.19248 13.459L2.16431 11.4356L3.02816 10.6112Z" fill="black"/>
</svg>
