<svg xmlns="http://www.w3.org/2000/svg" width="24" height="24" viewBox="0 0 24 24" fill="none">
    <path fill-rule="evenodd" clip-rule="evenodd" d="M12 3H19C20.1046 3 21 3.89543 21 5V12C21 13.1046 20.1046 14 19 14H16V15H19C20.6569 15 22 13.6569 22 12V5C22 3.34315 20.6569 2 19 2H12C10.3431 2 9 3.34315 9 5V8H10V5C10 3.89543 10.8954 3 12 3ZM2.14645 10.1464C1.95118 10.3417 1.95118 10.6583 2.14645 10.8536L7.29289 16L2.14645 21.1464C1.95118 21.3417 1.95118 21.6583 2.14645 21.8536C2.34171 22.0488 2.65829 22.0488 2.85355 21.8536L8 16.7071L13.1464 21.8536C13.3417 22.0488 13.6583 22.0488 13.8536 21.8536C14.0488 21.6583 14.0488 21.3417 13.8536 21.1464L8.70711 16L13.8536 10.8536C14.0488 10.6583 14.0488 10.3417 13.8536 10.1464C13.6583 9.95118 13.3417 9.95118 13.1464 10.1464L8 15.2929L2.85355 10.1464C2.65829 9.95118 2.34171 9.95118 2.14645 10.1464Z" fill="black"/>
</svg>
