<svg viewBox="0 0 24 24" xmlns="http://www.w3.org/2000/svg">
    <path d="M9.80469 4.68362L12 3.22008V10H10V11H15V10H13V2H12V2.01822L9.80469 3.48177V4.68362Z"/>
    <path fill-rule="evenodd" clip-rule="evenodd" d="M12.25 18.5C12.4344 18.5 12.6146 18.4818 12.7889 18.4472C12.7216 18.5574 12.6522 18.6695 12.5811 18.7835C12.3207 19.2006 12.0362 19.6421 11.7463 20.092C11.3712 20.6741 10.9869 21.2704 10.6338 21.8465H11.8111C12.059 21.4526 12.3143 21.0566 12.5689 20.6618C12.8605 20.2095 13.1514 19.7582 13.4293 19.3131C13.946 18.4856 14.422 17.6727 14.714 16.9726C14.8971 16.6043 15 16.1892 15 15.75C15 14.2312 13.7688 13 12.25 13C10.7312 13 9.5 14.2312 9.5 15.75C9.5 17.2688 10.7312 18.5 12.25 18.5ZM10.5 15.75C10.5 16.7165 11.2835 17.5 12.25 17.5C12.9291 17.5 13.5179 17.1131 13.808 16.5478C13.8712 16.3926 13.9216 16.2484 13.9574 16.1161L13.9614 16.1172C13.9867 15.9988 14 15.876 14 15.75C14 14.7835 13.2165 14 12.25 14C11.2835 14 10.5 14.7835 10.5 15.75Z"/>
</svg>
