<svg viewBox="0 0 24 24" fill="none" xmlns="http://www.w3.org/2000/svg">
<path fill-rule="evenodd" clip-rule="evenodd" d="M15.9908 3H16.9885V19.086L19.6357 16.4329L20.3411 17.1409L16.4917 21L12.6411 17.1409L13.3465 16.4329L15.9908 19.086V3ZM8.51589 11.4375H4.59958V10.6661H6.14565V5.6086L6.25571 4.99343L5.81219 5.48428L4.59958 6.30878L4.18076 5.7765L6.60826 4H7.00574V10.6651H8.51589V11.4375ZM4.64786 17.4141C4.44688 17.2366 4.28633 17.0178 4.16956 16.7575C4.05503 16.4971 3.99889 16.1986 4.00002 15.8639C4.00002 15.5366 4.04942 15.2317 4.15047 14.9502C4.25265 14.6686 4.40085 14.4252 4.5951 14.2212C4.79158 14.0141 5.03522 13.8526 5.32939 13.7368C5.62244 13.6209 5.9604 13.5625 6.3545 13.5625C7.09217 13.5625 7.66818 13.7888 8.07912 14.2404C8.49231 14.6941 8.7 15.3305 8.7 16.1507C8.7 16.9253 8.60683 17.601 8.42269 18.1812C8.23631 18.7592 7.98254 19.2479 7.65581 19.6442C7.33132 20.0416 6.94509 20.3519 6.50047 20.5739C6.05696 20.7971 5.57303 20.9373 5.05205 21L4.85558 20.3423C5.27662 20.2807 5.65275 20.1649 5.99071 19.9928C6.32642 19.8228 6.61611 19.607 6.85864 19.3467C7.09891 19.0875 7.29877 18.79 7.44923 18.4585C7.59968 18.1259 7.70522 17.7625 7.76361 17.3737C7.56936 17.5936 7.35377 17.7466 7.11799 17.8316C6.88108 17.9156 6.57344 17.9591 6.18944 17.9591C5.89415 17.9591 5.61234 17.9134 5.34961 17.821C5.08463 17.7275 4.85333 17.5936 4.64786 17.4141ZM6.29724 14.2818C5.85711 14.2818 5.51353 14.4135 5.26652 14.676C5.02175 14.9405 4.89825 15.3082 4.89937 15.781C4.89937 16.2687 5.03523 16.632 5.30582 16.8754C5.57641 17.1197 5.93346 17.2398 6.37471 17.2398C6.72727 17.2398 7.03156 17.1867 7.28643 17.0762C7.53906 16.9678 7.72093 16.8233 7.82984 16.6448C7.84332 16.5556 7.85119 16.4759 7.85119 16.4079V16.1922C7.85119 15.9457 7.82087 15.7077 7.75912 15.4793C7.69737 15.2487 7.60529 15.0447 7.48178 14.863C7.35603 14.6813 7.19884 14.5389 6.99899 14.4369C6.79913 14.3328 6.56559 14.2818 6.29724 14.2818Z" fill="black"/>
</svg>
