<svg viewBox="0 0 24 24" fill="none" xmlns="http://www.w3.org/2000/svg">
<path fill-rule="evenodd" clip-rule="evenodd" d="M15.9908 21H16.9885V4.914L19.6357 7.56711L20.3411 6.8591L16.4917 3L12.6411 6.8591L13.3465 7.56711L15.9908 4.914V21ZM8.51809 21H4.59845V20.2286H6.14341V15.1711L6.25456 14.5559L5.8133 15.0468L4.59845 15.8713L4.17854 15.339L6.60711 13.5625H7.00571V20.2276H8.51809V21ZM4.64899 7.85156C4.44801 7.67412 4.28855 7.45527 4.17179 7.19496C4.05614 6.93465 3.99889 6.63608 4.00002 6.30139C4.00002 5.97414 4.04942 5.66922 4.15047 5.38766C4.25265 5.10609 4.39973 4.86274 4.59509 4.65874C4.79046 4.45156 5.03408 4.29006 5.32825 4.17425C5.62242 4.05844 5.96263 4 6.35448 4C7.09215 4 7.66815 4.22631 8.07909 4.67788C8.49227 5.13156 8.7 5.76797 8.7 6.58822C8.7 7.36278 8.6068 8.03855 8.42266 8.61867C8.2374 9.19667 7.98139 9.68544 7.65578 10.0817C7.3313 10.4791 6.94507 10.7894 6.50045 11.0114C6.05695 11.2346 5.57302 11.3748 5.05204 11.4375L4.8567 10.7798C5.27775 10.7182 5.65386 10.6024 5.99182 10.4303C6.32753 10.2603 6.61722 10.0445 6.85862 9.78422C7.10114 9.52497 7.29988 9.22747 7.45033 8.89597C7.60191 8.56341 7.70744 8.20004 7.76358 7.81116C7.57046 8.0311 7.35488 8.18413 7.1191 8.26913C6.88443 8.35307 6.57455 8.39663 6.19056 8.39663C5.89526 8.39663 5.61458 8.35093 5.35073 8.2585C5.08575 8.165 4.85446 8.03113 4.64899 7.85156ZM6.30058 4.71931C5.8582 4.71931 5.51466 4.85103 5.26877 5.11347C5.02176 5.37803 4.89824 5.7457 4.89936 6.21851C4.89936 6.7062 5.03523 7.06954 5.30807 7.31285C5.57642 7.55723 5.93457 7.67731 6.37583 7.67731C6.73063 7.67731 7.03376 7.6242 7.28751 7.51369C7.54013 7.40532 7.72203 7.26081 7.82981 7.08231C7.84553 6.99306 7.85116 6.91335 7.85116 6.84535V6.62966C7.85116 6.38316 7.82198 6.1452 7.76022 5.91677C7.69735 5.6862 7.60639 5.48219 7.48288 5.3005C7.35938 5.11881 7.19994 4.97644 6.99896 4.87444C6.79911 4.77031 6.56668 4.71931 6.30058 4.71931Z" fill="black"/>
</svg>
