<svg viewBox="0 0 24 24" xmlns="http://www.w3.org/2000/svg">
<path d="M10.0005 11H15V10H13V2H12.473L9.46579 4.09L10.0005 4.71622L11.5485 3.74622L12.1147 3.16875L12 4L12.0057 10.0012H10.0005V11ZM9.21646 17.0088C9.36553 17.315 9.57049 17.5725 9.82706 17.7812C10.0894 17.9925 10.3846 18.15 10.7229 18.26C11.0583 18.3687 11.4181 18.4225 11.795 18.4225C12.2852 18.4225 12.678 18.3713 12.9804 18.2725C13.2814 18.1725 13.5566 17.9925 13.8046 17.7337C13.7301 18.1912 13.5953 18.6187 13.4033 19.01C13.2112 19.4 12.9561 19.75 12.6493 20.055C12.3397 20.3612 11.9699 20.615 11.5413 20.815C11.1099 21.0175 10.6297 21.1537 10.0922 21.2262L10.343 22C11.0081 21.9263 11.6259 21.7612 12.1921 21.4987C12.7597 21.2375 13.2528 20.8725 13.667 20.405C14.0841 19.9387 14.4081 19.3637 14.646 18.6837C14.8811 18.0012 15 17.2062 15 16.295C15 15.33 14.7349 14.5813 14.2074 14.0475C13.6828 13.5163 12.9475 13.25 12.0057 13.25C11.5026 13.25 11.0712 13.3188 10.6971 13.455C10.3216 13.5913 10.0105 13.7812 9.7597 14.025C9.51173 14.265 9.32253 14.5513 9.19209 14.8825C9.06309 15.2138 9.00002 15.5725 9.00002 15.9575C8.99859 16.3513 9.07026 16.7025 9.21646 17.0088ZM10.6168 14.56C10.9322 14.2512 11.3708 14.0963 11.9326 14.0963C12.2752 14.0963 12.5734 14.1562 12.8285 14.2787C13.0836 14.3987 13.2843 14.5662 13.4448 14.78C13.6025 14.9937 13.72 15.2338 13.7989 15.505C13.8777 15.7738 13.9164 16.0537 13.9164 16.3437C13.9164 16.4337 13.9164 16.5175 13.9164 16.5975C13.9164 16.6775 13.9064 16.7713 13.8892 16.8763C13.7501 17.0863 13.518 17.2563 13.1954 17.3838C12.8701 17.5138 12.4816 17.5762 12.0315 17.5762C11.4682 17.5762 11.0124 17.435 10.667 17.1475C10.3216 16.8612 10.1481 16.4338 10.1481 15.86C10.1467 15.3038 10.3044 14.8712 10.6168 14.56Z" />
</svg>
