<svg viewBox="0 0 24 24" fill="none" xmlns="http://www.w3.org/2000/svg">
    <path d="M6.5 3.22008L4.30469 4.68362V3.48177L6.5 2.01822V2H7.5V10H9.5V11H4.5V10H6.5V3.22008Z" fill="black"/>
    <path fill-rule="evenodd" clip-rule="evenodd" d="M7.28891 18.4472C7.11464 18.4818 6.93444 18.5 6.75 18.5C5.23122 18.5 4 17.2688 4 15.75C4 14.2312 5.23122 13 6.75 13C8.26878 13 9.5 14.2312 9.5 15.75C9.5 16.1892 9.39705 16.6043 9.21398 16.9726C8.92201 17.6727 8.44596 18.4856 7.92932 19.3131C7.6514 19.7582 7.36046 20.2095 7.06886 20.6618C6.81431 21.0566 6.55902 21.4526 6.31111 21.8465H5.13381C5.48687 21.2705 5.87107 20.6743 6.24611 20.0922C6.53602 19.6423 6.82068 19.2006 7.08107 18.7835C7.15222 18.6695 7.22156 18.5574 7.28891 18.4472ZM6.75 17.5C5.7835 17.5 5 16.7165 5 15.75C5 14.7835 5.7835 14 6.75 14C7.7165 14 8.5 14.7835 8.5 15.75C8.5 15.876 8.48669 15.9988 8.46141 16.1172L8.45741 16.1161C8.42155 16.2484 8.37124 16.3926 8.308 16.5478C8.01792 17.1131 7.42914 17.5 6.75 17.5Z" fill="black"/>
    <path d="M18.9885 3H17.9908V19.086L15.3465 16.4329L14.6411 17.1409L18.4917 21L22.3411 17.1409L21.6357 16.4329L18.9885 19.086V3Z" fill="black"/>
</svg>
