<svg viewBox="0 0 24 24" fill="none" xmlns="http://www.w3.org/2000/svg">
<path fill-rule="evenodd" clip-rule="evenodd" d="M18.0499 21H19.0476V4.914L21.6948 7.56711L22.4002 6.8591L18.5508 3L14.7002 6.8591L15.4056 7.56711L18.0499 4.914V21ZM12 9.00702C12 11.21 10.2052 12.989 8.001 12.989H5.00301V15H10.008V16H5.00301V19H4.002V16H2V15H4.002V5L8.001 5.013C10.2052 5.013 12 6.80502 12 9.00702ZM8.001 6H5.00301V12H8.001C9.65366 12 10.999 10.659 10.999 9.00702C10.999 7.35502 9.65366 6 8.001 6Z" fill="black"/>
</svg>
