<svg viewBox="0 0 16 16" fill="none" xmlns="http://www.w3.org/2000/svg"><path d="M8 5h6.5c.4.02.74.18 1.03.47.3.29.45.63.47 1.03v1h-1v-1a.48.48 0 0 0-.16-.34.48.48 0 0 0-.34-.16H7V3.5a.48.48 0 0 0-.16-.34A.48.48 0 0 0 6.5 3h-5a.48.48 0 0 0-.34.16c-.1.1-.16.21-.16.34v9c0 .13.05.24.16.34.1.1.22.16.34.16h7v1h-7a1.63 1.63 0 0 1-1.06-.44c-.27-.29-.42-.64-.44-1.06v-9A1.56 1.56 0 0 1 1.5 2h5c.4.02.74.18 1.03.47.3.29.45.63.47 1.03V5Z" fill="#000"/><path d="m15.3 15-2.13-2.12L11.05 15l-.7-.7 2.11-2.13-2.12-2.12.71-.7 2.12 2.11 2.12-2.12.71.71-2.12 2.12L16 14.3l-.7.71Z" fill="#000"/></svg>