<svg width="16" height="16" viewBox="0 0 16 16" fill="none" xmlns="http://www.w3.org/2000/svg">
<path d="M12.3283 2.67708H13.3334L13.3335 2H2.66679L2.66673 2.67708H3.66964L5.71528 7.06133C5.86459 7.375 5.97202 7.728 6.19965 7.99467C5.97202 8.26207 5.85938 8.59893 5.71528 8.92873L3.66892 13.3333H2.66602L2.66679 14H13.3335L13.3327 13.3333H12.3283L10.2795 8.92493C10.1511 8.57813 9.9948 8.2956 9.79514 7.9916C9.97394 7.6914 10.1354 7.39587 10.2781 7.06133L12.3283 2.67708ZM9.04174 8.2956C9.2448 8.46353 9.44274 8.78127 9.57774 9.12533L11.5661 13.3319L4.42194 13.3333L6.41856 9.12607C6.55208 8.83333 6.71354 8.53647 6.9524 8.2994L7.33854 7.9954L6.9524 7.6914C6.7292 7.46873 6.55208 7.17707 6.41856 6.86553L4.42892 2.67708L11.5669 2.67862L9.57627 6.86173C9.42707 7.17187 9.25 7.4896 9.04174 7.6884L8.65627 7.9924L9.04174 8.2956Z" fill="black"/>
</svg>
