<svg width="80" height="28" viewBox="0 0 80 28" fill="none" xmlns="http://www.w3.org/2000/svg">
<path d="M0.154633 15.102C0.344243 15.7643 0.781719 16.3774 1.65667 17.6037L7.22216 25.4037C7.86392 26.3031 8.1848 26.7528 8.59017 27.0872C9.03156 27.4512 9.54586 27.7162 10.0983 27.8641C10.6057 28 10.1589 28 11.263 28L16.8664 28C16.9176 28 16.9681 28 17.018 28H74.0064C77.3166 28 80 25.3137 80 22V6C80 2.68629 77.3166 0 74.0064 0H11.263C10.1589 0 10.6057 0 10.0983 0.135884C9.54586 0.28384 9.03155 0.548796 8.59017 0.912844C8.18479 1.24719 7.86392 1.6969 7.22216 2.59632L1.65667 10.3963C0.781719 11.6226 0.344243 12.2357 0.154633 12.898C-0.0515445 13.6182 -0.0515444 14.3818 0.154633 15.102Z" fill="#D94700"/>
</svg>
