<svg width="16" height="16" viewBox="0 0 16 16" fill="none" xmlns="http://www.w3.org/2000/svg">
<path d="M12.3437 11.8437C12.5533 12.0113 12.5533 12.3635 12.3437 12.5312C12.1993 12.7478 11.7995 12.7461 11.6562 12.5312L8 8.90616L4.34375 12.5312C4.1993 12.7478 3.79952 12.7461 3.65625 12.5312C3.44674 12.3635 3.44674 12.0113 3.65625 11.8437L7.28125 8.18741L3.65625 4.53116C3.44674 4.36355 3.44674 4.01127 3.65625 3.84366C3.82386 3.63415 4.17614 3.63415 4.34375 3.84366L8 7.46866L11.6562 3.84366C11.8239 3.63415 12.1761 3.63415 12.3437 3.84366C12.5533 4.01127 12.5533 4.36355 12.3437 4.53116L8.71875 8.18741L12.3437 11.8437Z" fill="black"/>
</svg>
