<svg width="24" height="24" viewBox="0 0 24 24" fill="none" xmlns="http://www.w3.org/2000/svg">
<path d="M20.0282 2C21.0905 2 22 2.96572 22 4.01405V12.0234C22 13.0866 21.0865 13.9906 20.0282 13.9906H15.9906V13.007H20.0282C20.5351 13.007 21.0141 12.5335 21.0141 12.0234V4.01405C21.0141 3.499 20.5443 3.03044 20.0282 3.03044H12C11.4481 3.03044 11.0141 3.46147 11.0141 4.01405V7.99532H9.98122V4.01405C9.98122 2.9033 10.8865 2 12 2H20.0282ZM19.5587 6.54333L15.662 10.3841C15.1615 9.26071 14.1019 8.37724 12.892 8.13583L13.5493 7.48009L15.0047 8.93208L18.4789 5.46604L19.5587 6.54333ZM12 10.0094C13.0806 10.0094 14.0188 10.9414 14.0188 12.0234V19.9859C14.0188 21.1008 13.1093 22 12 22H3.97183C2.84759 22 2 21.0961 2 19.9859V12.0234C2 10.946 2.87649 10.0094 3.97183 10.0094H12ZM12.9859 12.0234C12.9859 11.489 12.5478 10.993 12 10.993H3.97183C3.42881 10.993 2.98592 11.4982 2.98592 12.0234V19.9859C2.98592 20.5434 3.39955 21.0164 3.97183 21.0164H12C12.5763 21.0164 12.9859 20.5519 12.9859 19.9859V12.0234ZM10.4507 13.4754L11.5305 14.5527L6.97653 19.0492L4.44131 16.5199L5.52113 15.4895L6.97653 16.9415L10.4507 13.4754Z" fill="black"/>
</svg>
