<svg width="24" height="24" viewBox="0 0 24 24" fill="none" xmlns="http://www.w3.org/2000/svg">
<path d="M14.4844 10.8438C17.4409 13.6745 20.0678 16.8589 22.2656 20.3125C19.7454 17.0047 15.6618 14.4766 12.8437 12.3438C11.0312 14.125 8.85937 16.125 6.32812 18.3438C5.52572 19.1028 4.27209 20.2439 3.04687 19.9375C2.52764 19.4183 2.52455 18.5648 3.1875 17.3594C5.14296 14.7929 7.66239 12.6978 10.2187 10.75C8.10578 9.23509 3.69757 6.43473 3.23437 5.64067C2.99917 5.23747 2.6433 4.42224 2.95312 3.95317C3.17187 3.67192 3.5 3.5313 3.9375 3.5313C5.91206 3.44362 10.1061 7.10562 12.7031 9.1563C15.7382 7.22487 18.8852 5.46815 22.0781 3.81255C19.3551 6.16664 16.679 8.59233 14.4844 10.8438Z" fill="black"/>
</svg>
