<svg width="24" height="24" viewBox="0 0 24 24" fill="none" xmlns="http://www.w3.org/2000/svg">
<path d="M21.4212 5.707C21.5775 5.65188 21.7338 5.6381 21.8901 5.74834C22.0711 5.87599 21.9976 6.05153 21.8901 6.20306C19.3111 10.1716 17.4484 12.4314 16.3021 12.9826C15.2166 13.5295 14.2182 13.4995 13.2151 12.7759C12.4648 12.2348 11.3591 11.3291 10.3625 11.3291C9.42461 11.3291 8.06994 12.1007 6.29846 13.644L8.29138 21.9531H6.064L2 5.04558L4.07107 4.26014C5.13765 3.4249 7.72287 1.55793 9.11199 2.02785C11.4125 3.06716 12.4862 5.74834 14.7391 6.69913C16.544 7.46089 19.5343 6.4956 21.4212 5.707Z" fill="black"/>
</svg>
