<svg width="24" height="24" viewBox="0 0 24 24" fill="none" xmlns="http://www.w3.org/2000/svg">
<g clip-path="url(#clip0_14774_2146)">
<path d="M14.0038 11.9727C14.9898 11.2143 16 10.4374 16 9.2C16 6.99354 14.0586 6 12.1412 6C9.88235 6 8 7.34363 8 9.67059V9.95294H9.88235V9.24706C9.88235 8.06672 10.9748 7.55294 12 7.55294C12.9488 7.55294 13.9765 8.07035 13.9765 9.15294C13.9765 10.0144 13.336 10.5085 12.6852 11.0107C12.3532 11.2669 12.0185 11.5251 11.7647 11.8353C11.0637 12.6921 10.8235 13.6224 10.8235 14.7059C10.8549 14.8 10.8863 14.9098 10.9176 15.0353H12.7529V14.6588C12.7529 13.8804 12.7674 12.9029 13.4588 12.4C13.6351 12.2563 13.819 12.1148 14.0038 11.9727Z" fill="black"/>
<path d="M10.9176 16.2118V18H12.9412V16.2118H10.9176Z" fill="black"/>
<path d="M0 12C0 5.37258 5.37258 0 12 0C18.6274 0 24 5.37258 24 12C24 18.6274 18.6274 24 12 24C5.37258 24 0 18.6274 0 12ZM12 23.1C18.1304 23.1 23.1 18.1304 23.1 12C23.1 5.86964 18.1304 0.9 12 0.9C5.86964 0.9 0.9 5.86964 0.9 12C0.9 18.1304 5.86964 23.1 12 23.1Z" fill="black"/>
</g>
<defs>
<clipPath id="clip0_14774_2146">
<rect width="24" height="24" fill="white"/>
</clipPath>
</defs>
</svg>
