<svg width="24" height="24" viewBox="0 0 24 24" fill="none" xmlns="http://www.w3.org/2000/svg">
<path d="M15.9578 10.0197H2.98361V8.00739L6.96487 5.99507V4.02956L7.99532 3H15.9578L17.0351 4.02956V5.99507L21.0164 8.00739V10.0197H19.0023V8.99015H18.0187V10.0197H17.0351V8.99015H15.9578V10.0197ZM14.9742 5.99507L12.9602 4.02956H8.97892V5.99507H14.9742ZM21.0164 11.0025C21.4931 11.0025 22 11.5083 22 11.9852V16.0099C22 16.5613 21.5676 16.9926 21.0164 16.9926H19.0023L20.0328 22H3.96721L4.99766 16.9926H2.98361C2.43238 16.9926 2 16.5613 2 16.0099V11.9852C2 11.4337 2.43238 11.0025 2.98361 11.0025H21.0164ZM5.98126 13.0148V11.9852H3.96721V13.0148H5.98126ZM18.0187 19.9877L15.9578 13.0148H7.99532L5.98126 19.9877H9.96253L10.993 19.0049H12.9602L13.9906 19.9877H18.0187ZM8.97892 14.9803V13.9975H14.9742V14.9803H8.97892ZM8.97892 16.9926V16.0099H14.9742V16.9926H8.97892Z" fill="black"/>
</svg>
