<svg width="24" height="24" viewBox="0 0 24 24" fill="none" xmlns="http://www.w3.org/2000/svg">
<path d="M6.70862 9.64566C6.70862 5.42308 10.1317 2 14.3543 2C18.5769 2 22 5.42308 22 9.64566C22 13.8682 18.5769 17.2913 14.3543 17.2913C12.5579 17.2913 10.9062 16.6718 9.60117 15.6347L8.94504 16.336C9.21335 16.8714 9.1128 17.5834 8.66328 17.9758L5.09429 21.5833C4.5363 22.1399 3.63093 22.1379 3.075 21.5833L2.41756 20.9274C1.86186 20.373 1.85977 19.4693 2.41756 18.9128L5.98654 15.3053C6.4386 14.8543 7.11571 14.751 7.67711 15.0711L8.33455 14.3683C7.29706 13.0632 6.70862 11.4425 6.70862 9.64566ZM14.3543 15.891C17.8035 15.891 20.5996 13.0949 20.5996 9.64566C20.5996 6.19647 17.8035 3.40035 14.3543 3.40035C10.9051 3.40035 8.10898 6.19647 8.10898 9.64566C8.10898 13.0949 10.9051 15.891 14.3543 15.891Z" fill="black"/>
</svg>
