<svg width="24" height="24" viewBox="0 0 24 24" fill="none" xmlns="http://www.w3.org/2000/svg">
<path d="M19.7696 13.3874C19.2186 12.669 19.2156 11.6704 19.7626 10.9581L21.2536 9.01401L20.4606 8.40468L18.9696 10.3488C18.1476 11.4194 18.1506 12.9192 18.9766 13.9967L20.1996 15.5935C19.9356 16.1989 19.6106 16.7712 19.2266 17.2985L17.2176 17.0333C15.8806 16.8632 14.5826 17.6107 14.0626 18.8643L13.2156 20.9054C12.3696 21.0265 11.5296 21.0285 10.7076 20.9154L9.87357 18.9014C9.35857 17.6557 8.06057 16.9103 6.71457 17.0834L4.43758 17.3816L4.56657 18.3741L6.84457 18.0759C7.74557 17.9538 8.60857 18.4561 8.94957 19.2846L9.99657 21.8129L10.2686 21.8599C10.8116 21.953 11.3626 22 11.9166 22C12.4926 22 13.0736 21.949 13.6536 21.85L13.9246 21.8029L14.9846 19.2475C15.3326 18.4111 16.1956 17.9048 17.0856 18.0259L19.6686 18.3661L19.8446 18.1389C20.4166 17.4025 20.8846 16.5831 21.2356 15.7036L21.3396 15.4385L19.7696 13.3874ZM4.95757 10.3918L3.60957 8.63081C3.92057 7.8594 4.34258 7.132 4.86858 6.46064L7.01857 6.74381C8.34857 6.9149 9.65357 6.16852 10.1716 4.91385L10.9426 3.05482C11.5936 2.98378 12.2526 2.98176 12.9076 3.0528L13.6806 4.91983C14.1966 6.1675 15.5016 6.91292 16.8406 6.73783L19.3086 6.41563L19.1796 5.42309L16.7106 5.74529C15.8136 5.87136 14.9466 5.36708 14.6046 4.53663L13.6106 2.13532L13.3266 2.09629C12.3916 1.96722 11.4476 1.96725 10.5206 2.10032L10.2396 2.14136L9.24757 4.53162C8.90157 5.36807 8.04157 5.87832 7.14857 5.75225L4.44657 5.39812L4.26957 5.61021C3.53157 6.49969 2.95957 7.48523 2.57157 8.5408L2.47657 8.79991L4.16257 11.0021C4.71357 11.7205 4.71657 12.72 4.17057 13.4324L2.76357 15.2664L3.55657 15.8757L4.96357 14.0417C5.78557 12.9682 5.78257 11.4683 4.95757 10.3918ZM11.9996 8.99502C10.3456 8.99502 8.99957 10.3417 8.99957 11.9966C8.99957 13.6515 10.3456 14.9983 11.9996 14.9983C13.6536 14.9983 14.9996 13.6515 14.9996 11.9966C14.9996 10.3417 13.6536 8.99502 11.9996 8.99502ZM11.9996 13.9977C10.8966 13.9977 9.99957 13.1002 9.99957 11.9966C9.99957 10.893 10.8966 9.99556 11.9996 9.99556C13.1026 9.99556 13.9996 10.893 13.9996 11.9966C13.9996 13.1002 13.1026 13.9977 11.9996 13.9977Z" fill="black"/>
</svg>
