<svg width="24" height="24" viewBox="0 0 24 24" fill="none" xmlns="http://www.w3.org/2000/svg">
<path d="M2.98592 22L2 21.0164L21.0141 2L22 3.03044L2.98592 22ZM5.61502 15.7237C4.74345 15.1258 3.08089 13.5317 2.60734 12.2221C5.8396 7.3779 9.31607 7.05855 12 7.05855C12.7227 7.05855 13.3869 7.13943 13.9249 7.19906L12.8451 8.32318C12.5598 8.32318 12.2833 8.27635 12 8.27635C9.76962 8.27635 7.8216 10.0918 7.8216 12.3513C7.8216 12.6383 7.89381 12.9925 7.96244 13.3349L5.61502 15.7237ZM17.9624 8.69789C18.9386 9.29307 20.8194 10.7624 21.4314 12.4056C18.9612 16.5626 15.4933 17.644 12 17.644C11.1493 17.644 10.3382 17.5691 9.51174 17.363L10.6385 16.192C11.0988 16.3232 11.5175 16.4262 12 16.4262C14.2595 16.4262 16.1784 14.6442 16.1784 12.3513C16.1784 11.8594 16.0918 11.3065 15.8967 10.8525L17.9624 8.69789ZM14.0657 12.726C13.9718 13.1007 13.784 13.4442 13.5023 13.7564C13.2207 14.0375 12.8764 14.2248 12.4695 14.3185L14.0657 12.726Z" fill="black"/>
</svg>
