<svg xmlns="http://www.w3.org/2000/svg">
 <svg>
  <symbol id="difficult_sort" viewBox="0 0 24 24">
   <path d="M5 20H19V19H5V20ZM11 10H19V9H11V10ZM8 15H19V14H8V15ZM14 4V5H19V4H14Z"/>
  </symbol>
 </svg>
 <svg>
  <symbol id="alphabet_ru" viewBox="0 0 24 24">
   <path d="M14.764 9L15.8475 11H17.0002L12.6659 3H11.3343L7 11H8.15266L9.23624 9H14.764ZM9.77803 8H14.2222L12.0001 3.89866L9.77803 8ZM10.75 14H15V17.5H10.75C9.78347 17.5 8.99997 16.7165 8.99997 15.75C8.99997 14.7835 9.78347 14 10.75 14ZM10.75 13H15H16V14V17.5V18.5V21H15V18.5H11.3462L9.29419 20.9999H8.00046L10.1132 18.4259C8.90147 18.1387 7.99997 17.0496 7.99997 15.75C7.99997 14.2312 9.23119 13 10.75 13Z"/>
  </symbol>
 </svg>
 <svg>
  <symbol id="alphabet_en" viewBox="0 0 24 24">
   <path d="M14.764 9L15.8475 11H17.0002L12.6659 3H11.3343L7 11H8.15266L9.23624 9H14.764ZM9.77803 8H14.2222L12.0001 3.89866L9.77803 8ZM15.8222 13.7771L9.83248 20.0057H16V21H8V20.2229L14.0171 13.9943H8.09573V13H15.8222V13.7771Z"/>
  </symbol>
 </svg>
 <svg>
  <symbol id="non_sort" viewBox="0 0 24 24">
   <path d="M20 7.5C20 8.60457 19.1046 9.5 18 9.5C16.8954 9.5 16 8.60457 16 7.5C16 6.39543 16.8954 5.5 18 5.5C19.1046 5.5 20 6.39543 20 7.5ZM21 7.5C21 9.15685 19.6569 10.5 18 10.5C16.3431 10.5 15 9.15685 15 7.5C15 5.84315 16.3431 4.5 18 4.5C19.6569 4.5 21 5.84315 21 7.5ZM12 7H3V8H12V7ZM21 16H12V17H21V16ZM6 18.5C7.10457 18.5 8 17.6046 8 16.5C8 15.3954 7.10457 14.5 6 14.5C4.89543 14.5 4 15.3954 4 16.5C4 17.6046 4.89543 18.5 6 18.5ZM6 19.5C7.65685 19.5 9 18.1569 9 16.5C9 14.8431 7.65685 13.5 6 13.5C4.34315 13.5 3 14.8431 3 16.5C3 18.1569 4.34315 19.5 6 19.5Z"/>
  </symbol>
 </svg>
 <svg>
  <symbol id="time" viewBox="0 0 24 24">
   <path d="M20 12C20 16.4183 16.4183 20 12 20C7.58172 20 4 16.4183 4 12C4 7.58172 7.58172 4 12 4C16.4183 4 20 7.58172 20 12ZM21 12C21 16.9706 16.9706 21 12 21C7.02944 21 3 16.9706 3 12C3 7.02944 7.02944 3 12 3C16.9706 3 21 7.02944 21 12ZM11 6H12V12H16V13H12H11V12V6Z"/>
  </symbol>
 </svg>
 <svg>
  <symbol id="date" viewBox="0 0 24 24">
   <path d="M7 3H6V5.5H4V6.5H20V5.5H18V3H17V5.5H7V3ZM4 9H5V10V12V17C5 18.6569 6.34315 20 8 20H16C17.6569 20 19 18.6569 19 17V12V10V9H20V10V17C20 19.2091 18.2091 21 16 21H8C5.79086 21 4 19.2091 4 17V10V9ZM8 11H11V12H8V11ZM16 11H13V12H16V11ZM8 15H11V16H8V15ZM16 15H13V16H16V15Z"/>
  </symbol>
 </svg>
 <svg>
  <symbol id="debt" viewBox="0 0 24 24">
   <path d="M14.54 22H5V3H19V13H18V4H6V21H13V19.656C13.002 18.308 13.916 17.121 15.225 16.768L19 15.753V16.687L14.54 22ZM14 21H14.074L17.203 17.272L15.484 17.734C14.611 17.969 14.002 18.759 14 19.657V21Z"/>
  </symbol>
 </svg>
 <svg>
  <symbol id="deflection" viewBox="0 0 24 24">
   <path d="M20.5 21H3.5L12.0013 3L20.5 21ZM5.1 20H18.9L12 5.3L5.1 20Z"/>
  </symbol>
 </svg>
 <svg>
  <symbol id="number" viewBox="0 0 24 24">
   <path d="M10.0005 11H15V10H13V2H12.473L9.46579 4.09L10.0005 4.71622L11.5485 3.74622L12.1147 3.16875L12 4L12.0057 10.0012H10.0005V11ZM9.21646 17.0088C9.36553 17.315 9.57049 17.5725 9.82706 17.7812C10.0894 17.9925 10.3846 18.15 10.7229 18.26C11.0583 18.3687 11.4181 18.4225 11.795 18.4225C12.2852 18.4225 12.678 18.3713 12.9804 18.2725C13.2814 18.1725 13.5566 17.9925 13.8046 17.7337C13.7301 18.1912 13.5953 18.6187 13.4033 19.01C13.2112 19.4 12.9561 19.75 12.6493 20.055C12.3397 20.3612 11.9699 20.615 11.5413 20.815C11.1099 21.0175 10.6297 21.1537 10.0922 21.2262L10.343 22C11.0081 21.9263 11.6259 21.7612 12.1921 21.4987C12.7597 21.2375 13.2528 20.8725 13.667 20.405C14.0841 19.9387 14.4081 19.3637 14.646 18.6837C14.8811 18.0012 15 17.2062 15 16.295C15 15.33 14.7349 14.5813 14.2074 14.0475C13.6828 13.5163 12.9475 13.25 12.0057 13.25C11.5026 13.25 11.0712 13.3188 10.6971 13.455C10.3216 13.5913 10.0105 13.7812 9.7597 14.025C9.51173 14.265 9.32253 14.5513 9.19209 14.8825C9.06309 15.2138 9.00002 15.5725 9.00002 15.9575C8.99859 16.3513 9.07026 16.7025 9.21646 17.0088ZM10.6168 14.56C10.9322 14.2512 11.3708 14.0963 11.9326 14.0963C12.2752 14.0963 12.5734 14.1562 12.8285 14.2787C13.0836 14.3987 13.2843 14.5662 13.4448 14.78C13.6025 14.9937 13.72 15.2338 13.7989 15.505C13.8777 15.7738 13.9164 16.0537 13.9164 16.3437C13.9164 16.4337 13.9164 16.5175 13.9164 16.5975C13.9164 16.6775 13.9064 16.7713 13.8892 16.8763C13.7501 17.0863 13.518 17.2563 13.1954 17.3838C12.8701 17.5138 12.4816 17.5762 12.0315 17.5762C11.4682 17.5762 11.0124 17.435 10.667 17.1475C10.3216 16.8612 10.1481 16.4338 10.1481 15.86C10.1467 15.3038 10.3044 14.8712 10.6168 14.56Z"/>
  </symbol>
 </svg>
 <svg>
  <symbol id="partner" viewBox="0 0 24 24">
   <path d="M14.8 6.8C14.8 8.3464 13.5464 9.6 12 9.6C10.4536 9.6 9.2 8.3464 9.2 6.8C9.2 5.2536 10.4536 4 12 4C13.5464 4 14.8 5.2536 14.8 6.8ZM15.8 6.8C15.8 8.89868 14.0987 10.6 12 10.6C9.90132 10.6 8.2 8.89868 8.2 6.8C8.2 4.70132 9.90132 3 12 3C14.0987 3 15.8 4.70132 15.8 6.8ZM5.57732 16.1052C5.96871 14.8527 7.12861 14 8.44076 14H15.5592C16.8714 14 18.0313 14.8527 18.4227 16.1052L19.6398 20H4.36019L5.57732 16.1052ZM19.3772 15.8069L20.6875 20L21 21H19.9523H4.04769H3L3.3125 20L4.62284 15.8069C5.14469 14.137 6.69122 13 8.44076 13H15.5592C17.3088 13 18.8553 14.137 19.3772 15.8069Z"/>
  </symbol>
 </svg>
 <svg>
  <symbol id="recall" viewBox="0 0 24 24">
   <path d="M12.0001 20.967L12.0001 20.9671L18.8591 14.1081L18.859 14.1081L19.6721 13.295C21.5661 11.401 21.5661 8.33012 19.6721 6.43608C17.778 4.54203 14.7072 4.54203 12.8131 6.43607L12.0001 7.24913L11.187 6.43602C9.29291 4.54197 6.22206 4.54197 4.32802 6.43602C2.43398 8.33006 2.43398 11.4009 4.32802 13.295L5.14114 14.1081L5.14102 14.1082L12 20.9671L12.0001 20.967ZM12.0001 19.5528L18.965 12.5879C20.4685 11.0844 20.4685 8.6467 18.965 7.14318C17.4614 5.63966 15.0238 5.63966 13.5202 7.14318L12.7072 7.95624L12.7072 7.95626L12.0001 8.66336L12.0001 8.66335L12 8.66346L11.2929 7.95636L11.293 7.95624L10.4799 7.14312C8.97633 5.63961 6.53865 5.63961 5.03513 7.14312C3.53161 8.64664 3.53161 11.0843 5.03513 12.5878L12.0001 19.5528Z"/>
  </symbol>
 </svg>
 <svg>
  <symbol id="problem" viewBox="0 0 24 24">
   <path d="M15.7251 3H8.27103L3 8.27236V15.7277L8.27236 21H15.7264L21 15.7277V8.27236L15.7251 3ZM15.2 20.0078H8.80469L4 15.2V8.8L8.8 4.00781H15.2L20 8.8V15.2L15.2 20.0078ZM11.6772 13.5H12.3272L13.3002 8.31895V7H10.7002V8.31895L11.6772 13.5ZM11.9998 17.0016C12.6625 17.0016 13.1998 16.4643 13.1998 15.8016C13.1998 15.1388 12.6625 14.6016 11.9998 14.6016C11.3371 14.6016 10.7998 15.1388 10.7998 15.8016C10.7998 16.4643 11.3371 17.0016 11.9998 17.0016Z"/>
  </symbol>
 </svg>
 <svg>
  <symbol id="rating" viewBox="0 0 24 24">
   <path d="M17.0904 21L12 17.3176L6.9097 20.9988L5.64365 20.0788L7.58681 14.1219L2.5 10.4408L3 9.00275L9.3 9.00391L11.218 3H12.7856L14.7 9H20.9987L21.5 10.4443L16.412 14.1267L18.3564 20.0812L17.0904 21ZM12 16.0508L17.1 19.7L15.1 13.7L20.2 10H13.9L12 4.2L10.1 10H3.8L8.9 13.7L6.9 19.7L12 16.0508Z"/>
  </symbol>
 </svg>
 <svg>
  <symbol id="timing" viewBox="0 0 24 24">
   <path d="M18.4925 4.01562H20.0001L20.0002 3H4.00018L4.00009 4.01562H5.50445L8.57291 10.592C8.79688 11.0625 8.95802 11.592 9.29947 11.992C8.95802 12.3931 8.78906 12.8984 8.57291 13.3931L5.50338 20H3.99902L4.00018 21H20.0002L19.999 20H18.4925L15.4193 13.3874C15.2266 12.8672 14.9922 12.4434 14.6927 11.9874C14.9609 11.5371 15.2031 11.0938 15.4171 10.592L18.4925 4.01562ZM13.5626 12.4434C13.8672 12.6953 14.1641 13.1719 14.3666 13.688L17.3492 19.9978L6.6329 20L9.62783 13.6891C9.82812 13.25 10.0703 12.8047 10.4286 12.4491L11.0078 11.9931L10.4286 11.5371C10.0938 11.2031 9.82812 10.7656 9.62783 10.2983L6.64337 4.01562L17.3503 4.01793L14.3644 10.2926C14.1406 10.7578 13.875 11.2344 13.5626 11.5326L12.9844 11.9886L13.5626 12.4434Z"/>
  </symbol>
 </svg>
 <svg>
  <symbol id="sum" viewBox="0 0 24 24">
   <path d="M17 3H7H6V4V5H6.00598L6.00391 5.00201L12.8104 12.0013L6.00441 19H6V20V21H7H17V20H7V19.4106L14.2027 12.0039L14.2018 12.003L14.2044 12.0004L7 4.59194V4H17V3Z"/>
  </symbol>
 </svg>
 <svg>
  <symbol id="price" viewBox="0 0 24 24">
   <path d="M8 3H9H13C15.7614 3 18 5.23858 18 8C18 10.7614 15.7614 13 13 13H9V16H15V17H9V21H8V17H6V16H8V13V3ZM13 12H9V4H13C15.2091 4 17 5.79086 17 8C17 10.2091 15.2091 12 13 12Z"/>
  </symbol>
 </svg>
 <svg>
  <symbol id="custom" viewBox="0 0 24 24">
   <path d="M3.079 4L12 18.15V4H13V20H11.921L3 5.84998V20H2V4H3.079ZM22 12V13H16V12H22ZM21 7C21 8.10457 20.1046 9 19 9C17.8954 9 17 8.10457 17 7C17 5.89543 17.8954 5 19 5C20.1046 5 21 5.89543 21 7ZM22 7C22 8.65685 20.6569 10 19 10C17.3431 10 16 8.65685 16 7C16 5.34315 17.3431 4 19 4C20.6569 4 22 5.34315 22 7Z"/>
  </symbol>
 </svg>
 <svg>
  <symbol id="arrow" viewBox="0 0 16 16">
   <path d="M8 15.5a.5.5 0 001 0V1.67l2.15 2.18a.5.5 0 10.7-.71l-3-3a.5.5 0 00-.4-.14.5.5 0 00-.31.14l-3 3a.5.5 0 10.7.71L8 1.67V15.5z"/>
  </symbol>
 </svg>
 <svg>
  <symbol id="arrow_ASC" viewBox="0 0 16 16">
   <path d="M12 7l-3-.75v8.25H7V6.25L4 7l4-5z"/>
  </symbol>
 </svg>
 <svg>
  <symbol id="arrow_DESC" viewBox="0 0 16 16">
   <path transform="rotate(180, 8, 8)" d="M12 7l-3-.75v8.25H7V6.25L4 7l4-5z"/>
  </symbol>
 </svg>
 <svg>
  <symbol id="difficult_sort_ASC" viewBox="0 0 24 24">
   <path d="M17.9908 21H18.9885V4.914L21.6357 7.56711L22.3411 6.8591L18.4917 3L14.6411 6.8591L15.3465 7.56711L17.9908 4.914V21ZM2 19H12V18H2V19ZM6 10H12V11H6V10ZM4 14H12V15H4V14ZM8 6H12V7H8V6Z"/>
  </symbol>
 </svg>
 <svg>
<symbol id="alphabet_ru_ASC" viewBox="0 0 24 24">
 <path d="M5.75 13H11v8h-1v-2.5H6.35L4.29 21H3l2.11-2.57A2.75 2.75 0 0 1 5.75 13Zm0 1H10v3.5H5.75a1.75 1.75 0 1 1 0-3.5Zm4.01-5 1.09 2H12L7.67 3H6.33L2 11h1.15l1.09-2h5.52ZM7 3.9 4.78 8h4.44L7 3.9ZM18.99 21h-1V4.91l-2.64 2.66-.7-.71L18.48 3l3.85 3.86-.7.7-2.65-2.65V21Z"/>
</symbol>
 </svg>
 <svg>
  <symbol id="alphabet_en_ASC" viewBox="0 0 24 24">
   <path d="M10.8475 11L9.76396 9H4.23624L3.15266 11H2L6.33433 3H7.66587L12.0002 11H10.8475ZM9.22217 8H4.77803L7.0001 3.89866L9.22217 8ZM4.83248 20.0057L10.8222 13.7771V13H3.09573V13.9943H9.01709L3 20.2229V21H11V20.0057H4.83248ZM17.9908 21H18.9885V4.914L21.6357 7.56711L22.3411 6.8591L18.4917 3L14.6411 6.8591L15.3465 7.56711L17.9908 4.914V21Z"/>
  </symbol>
 </svg>
 <svg>
  <symbol id="time_ASC" viewBox="0 0 24 24">
   <path d="M18.9908 21H19.9885V4.914L22.6357 7.56711L23.3411 6.8591L19.4917 3L15.6411 6.8591L16.3465 7.56711L18.9908 4.914V21ZM1.0415 12C1.0415 15.859 4.1825 19 8.0415 19C11.9005 19 15.0415 15.859 15.0415 12C15.0415 8.141 11.9005 5 8.0415 5C4.1825 5 1.0415 8.141 1.0415 12ZM2.0415 12C2.0415 8.691 4.7325 6 8.0415 6C11.3505 6 14.0415 8.691 14.0415 12C14.0415 15.309 11.3505 18 8.0415 18C4.7325 18 2.0415 15.309 2.0415 12ZM8.0415 12H11.0415V13H7.0415V7H8.0415V12Z"/>
  </symbol>
 </svg>
 <svg>
  <symbol id="date_ASC" viewBox="0 0 24 24">
   <path d="M18.9908 21H19.9885V4.914L22.6357 7.56711L23.3411 6.8591L19.4917 3L15.6411 6.8591L16.3465 7.56711L18.9908 4.914V21ZM11 19C12.104 19 13 18.104 13 17V10H14V17C14 18.654 12.654 20 11 20H4C2.346 20 1 18.654 1 17V10H2V17C2 18.104 2.896 19 4 19H11ZM12 5V7H14V8H1V7H3V5H4V7H11V5H12ZM6.5 12H4.5V13H6.5V12ZM8.5 12H10.5V13H8.5V12ZM6.5 15H4.5V16H6.5V15ZM8.5 15H10.5V16H8.5V15Z"/>
  </symbol>
 </svg>
 <svg>
  <symbol id="debt_ASC" viewBox="0 0 24 24">
   <path d="M17.9908 21H18.9885V4.914L21.6357 7.56711L22.3411 6.8591L18.4917 3L14.6411 6.8591L15.3465 7.56711L17.9908 4.914V21ZM2 19H8.53998L13 13.687V12.753L9.22498 13.768C7.91598 14.121 7.002 15.308 7 16.656V18H3V6H12V10H13V5H2V19ZM8.07397 18H8V16.657C8.002 15.759 8.61101 14.969 9.48401 14.734L11.203 14.272L8.07397 18Z"/>
  </symbol>
 </svg>
 <svg>
  <symbol id="deflection_ASC" viewBox="0 0 24 24">
   <path d="M18.9908 21H19.9885V4.914L22.6357 7.56711L23.3411 6.8591L19.4917 3L15.6411 6.8591L16.3465 7.56711L18.9908 4.914V21ZM1 20H15L8.00103 5L1 20ZM13.3926 18.9786H2.60843L8.00103 7.42472L13.3926 18.9786Z"/>
  </symbol>
 </svg>
 <svg>
  <symbol id="number_ASC" viewBox="0 0 24 24">
   <path d="M16.99 21h-1V4.91l-2.64 2.66-.7-.71L16.48 3l3.85 3.86-.7.7-2.65-2.65V21ZM4.6 11.44h3.92v-.77H7V4h-.4L4.18 5.78l.42.53 1.21-.83.45-.49-.11.62v5.06H4.6v.77Zm-.43 5.32a1.96 1.96 0 001.18 1.06c.26.1.54.14.84.14.38 0 .7-.04.93-.13.23-.08.45-.24.64-.46a4.1 4.1 0 01-.31 1.09 3.17 3.17 0 01-1.46 1.53c-.34.17-.71.3-1.13.35l.2.66c.51-.06 1-.2 1.44-.43a3.5 3.5 0 001.16-.93c.32-.4.58-.88.76-1.46a6.5 6.5 0 00.28-2.03c0-.82-.2-1.46-.62-1.91a2.22 2.22 0 00-1.73-.68c-.39 0-.73.06-1.02.18a2 2 0 00-1.18 1.21 2.69 2.69 0 00.02 1.8Zm1.1-2.08c.24-.27.59-.4 1.03-.4.27 0 .5.05.7.16.2.1.36.24.48.42a2 2 0 01.28.62c.06.23.1.47.1.71v.22l-.03.23c-.1.18-.3.33-.54.44-.26.1-.56.16-.92.16-.44 0-.8-.12-1.06-.36-.27-.25-.41-.61-.41-1.1 0-.47.12-.84.37-1.1Z"/>
  </symbol>
 </svg>
 <svg>
  <symbol id="partner_ASC" viewBox="0 0 24 24">
   <path d="M18.9908 21H19.9885V4.914L22.6357 7.56711L23.3411 6.8591L19.4917 3L15.6411 6.8591L16.3465 7.56711L18.9908 4.914V21ZM4.53917 8C4.53917 9.654 5.8676 11 7.5 11C9.1324 11 10.4608 9.654 10.4608 8C10.4608 6.346 9.1324 5 7.5 5C5.8676 5 4.53917 6.346 4.53917 8ZM5.52612 8C5.52612 6.896 6.41042 6 7.5 6C8.5886 6 9.47388 6.896 9.47388 8C9.47388 9.104 8.58958 10 7.5 10C6.41042 10 5.52612 9.104 5.52612 8ZM2.00272 15.225L1 19H14L12.9982 15.225C12.6508 13.915 11.4794 13 10.147 13H4.85398C3.52161 13 2.35013 13.915 2.00272 15.225ZM12.711 18H2.28699L2.95515 15.484C3.18609 14.61 3.96676 14 4.85205 14H10.145C11.0313 14 11.811 14.61 12.0419 15.484L12.711 18Z"/>
  </symbol>
 </svg>
 <svg>
  <symbol id="recall_ASC" viewBox="0 0 24 24">
   <path d="M18.9908 21H19.9885V4.914L22.6357 7.56711L23.3411 6.8591L19.4917 3L15.6411 6.8591L16.3465 7.56711L18.9908 4.914V21ZM1.67798 12.8764L8 19.2085L14.326 12.8764C15.891 11.3074 15.891 8.75509 14.326 7.18707C13.566 6.42709 12.558 6.00854 11.485 6.00854C10.412 6.00854 9.40201 6.42709 8.64301 7.18707L8.00098 7.82986L7.35999 7.18707C6.59999 6.42709 5.59101 6.00854 4.51801 6.00854C3.44501 6.00854 2.43598 6.42709 1.67798 7.18707C0.917979 7.94705 0.5 8.95735 0.5 10.0317C0.5 11.1071 0.917979 12.1174 1.67798 12.8764ZM2.38501 7.89495C2.95501 7.32421 3.71201 7.00984 4.51801 7.00984C5.32401 7.00984 6.082 7.32421 6.651 7.89495L7.99896 9.24569L9.34698 7.89495C9.91798 7.32421 10.677 7.00984 11.483 7.00984C12.289 7.00984 13.047 7.32521 13.617 7.89495C14.793 9.07347 14.793 10.9899 13.617 12.1685L8 17.7927L2.38501 12.1685C1.81401 11.5977 1.5 10.8398 1.5 10.0317C1.5 9.2247 1.81501 8.46568 2.38501 7.89495Z"/>
  </symbol>
 </svg>
 <svg>
  <symbol id="problem_ASC" viewBox="0 0 24 24">
   <path d="M18.9908 21H19.9885V4.914L22.6357 7.56711L23.3411 6.8591L19.4917 3L15.6411 6.8591L16.3465 7.56711L18.9908 4.914V21ZM5.09998 5H10.898L15.001 9.10101V14.9L10.899 19.001H5.10101L1 14.9V9.10101L5.09998 5ZM10.485 18L14 14.485H14.001V9.51398L10.486 5.99902H5.51398L2 9.51398V14.485L5.513 18H10.485ZM7 15C7 14.447 7.447 14 8 14C8.553 14 9 14.447 9 15C9 15.553 8.553 16 8 16C7.447 16 7 15.553 7 15ZM7.75 13L7 9V8H9V9L8.25201 13H7.75Z"/>
  </symbol>
 </svg>
 <svg>
  <symbol id="rating_ASC" viewBox="0 0 24 24">
   <path d="M18.9908 21H19.9885V4.914L22.6357 7.56711L23.3411 6.8591L19.4917 3L15.6411 6.8591L16.3465 7.56711L18.9908 4.914V21ZM8 17.0904L12.2866 20.2L13.3528 19.4241L11.7154 14.3959L16 11.2863L15.5955 10.0312H10.2989L8.66156 5H7.34144L5.70509 10.0292L0.407586 10.0282L0 11.2833L4.28363 14.3918L2.64728 19.4221L3.71343 20.199L8 17.0904ZM12.1059 18.8307L8 15.8514L3.8951 18.8297L5.46319 14.0099L1.35829 11.0317L6.43497 11.0327L8.00202 6.21494L9.57109 11.0337H14.6438L10.5379 14.0119L12.1059 18.8307Z"/>
  </symbol>
 </svg>
 <svg>
  <symbol id="timing_ASC" viewBox="0 0 24 24">
   <path d="M17.9908 21H18.9885V4.914L21.6357 7.56711L22.3411 6.8591L18.4917 3L14.6411 6.8591L15.3465 7.56711L17.9908 4.914V21ZM13 6H11.618L10.293 10.779C10.172 11.23 9.942 11.65 9.629 12C9.942 12.351 10.173 12.772 10.295 13.225L11.619 18H13V19H2V18H3.379L4.65399 13.226C4.77599 12.771 5.00701 12.351 5.32001 12C5.00701 11.65 4.77699 11.228 4.65399 10.775L3.379 6H2V5H13V6ZM9.32999 13.488C9.21299 13.054 8.95099 12.67 8.59299 12.399L8.06299 12.001L8.59299 11.602C8.95099 11.331 9.213 10.947 9.328 10.517L10.571 6.03699L4.423 6.03497L5.621 10.518C5.736 10.947 5.99701 11.331 6.35501 11.602L6.88599 12.001L6.35501 12.4C5.99601 12.671 5.736 13.055 5.621 13.485L4.423 17.967L10.571 17.965L9.32999 13.488Z"/>
  </symbol>
 </svg>
 <svg>
  <symbol id="sum_ASC" viewBox="0 0 24 24">
   <path d="M16.9908 21H17.9885V4.914L20.6357 7.56711L21.3411 6.8591L17.4917 3L13.6411 6.8591L14.3465 7.56711L16.9908 4.914V21ZM3 19H11V18H4V17.693L9.17603 12L4 6.30701V6H11V5H3V6.69299L7.82397 12L3 17.307V19Z"/>
  </symbol>
 </svg>
 <svg>
  <symbol id="price_ASC" viewBox="0 0 24 24">
   <path d="M18.0499 21H19.0476V4.914L21.6948 7.56711L22.4002 6.8591L18.5508 3L14.7002 6.8591L15.4056 7.56711L18.0499 4.914V21ZM12 9.00702C12 11.21 10.2052 12.989 8.001 12.989H5.00301V15H10.008V16H5.00301V19H4.002V16H2V15H4.002V5L8.001 5.013C10.2052 5.013 12 6.80502 12 9.00702ZM8.001 6H5.00301V12H8.001C9.65366 12 10.999 10.659 10.999 9.00702C10.999 7.35502 9.65366 6 8.001 6Z"/>
  </symbol>
 </svg>
 <svg>
  <symbol id="custom_ASC" viewBox="0 0 24 24">
   <path d="M3.079 4L12 18.15V4H13V20H11.921L3 5.84998V20H2V4H3.079ZM22 12V13H16V12H22ZM21 7C21 8.10457 20.1046 9 19 9C17.8954 9 17 8.10457 17 7C17 5.89543 17.8954 5 19 5C20.1046 5 21 5.89543 21 7ZM22 7C22 8.65685 20.6569 10 19 10C17.3431 10 16 8.65685 16 7C16 5.34315 17.3431 4 19 4C20.6569 4 22 5.34315 22 7Z"/>
  </symbol>
 </svg>
 <svg>
  <symbol id="difficult_sort_DESC" viewBox="0 0 24 24">
   <path d="M19.0087 3H18.011V19.086L15.3638 16.4329L14.6584 17.1409L18.5078 21L22.3584 17.1409L21.653 16.4329L19.0087 19.086V3ZM2 19H12V18H2V19ZM6 10H12V11H6V10ZM4 14H12V15H4V14ZM8 6H12V7H8V6Z"/>
  </symbol>
 </svg>
 <svg>
  <symbol id="alphabet_ru_DESC" viewBox="0 0 24 24">
   <path d="M10.8475 11L9.76396 9H4.23624L3.15266 11H2L6.33433 3H7.66587L12.0002 11H10.8475ZM9.22217 8H4.77803L7.0001 3.89866L9.22217 8ZM9.99997 14H5.74997C4.78347 14 3.99997 14.7835 3.99997 15.75C3.99997 16.7165 4.78347 17.5 5.74997 17.5H9.99997V14ZM9.99997 13H5.74997C4.23119 13 2.99997 14.2312 2.99997 15.75C2.99997 17.0496 3.90147 18.1387 5.11324 18.4259L3.00046 20.9999H4.29419L6.34617 18.5H9.99997V21H11V18.5V17.5V14V13H9.99997ZM17.9908 3H18.9885V19.086L21.6357 16.4329L22.3411 17.1409L18.4917 21L14.6411 17.1409L15.3465 16.4329L17.9908 19.086V3Z"/>
  </symbol>
 </svg>
 <svg>
  <symbol id="alphabet_en_DESC" viewBox="0 0 24 24">
   <path d="M10.8475 11L9.76396 9H4.23624L3.15266 11H2L6.33433 3H7.66587L12.0002 11H10.8475ZM9.22217 8H4.77803L7.0001 3.89866L9.22217 8ZM4.83248 20.0057L10.8222 13.7771V13H3.09573V13.9943H9.01709L3 20.2229V21H11V20.0057H4.83248ZM17.9908 3H18.9885V19.086L21.6357 16.4329L22.3411 17.1409L18.4917 21L14.6411 17.1409L15.3465 16.4329L17.9908 19.086V3Z"/>
  </symbol>
 </svg>
 <svg>
  <symbol id="time_DESC" viewBox="0 0 24 24">
   <path d="M18.9908 3H19.9885V19.086L22.6357 16.4329L23.3411 17.1409L19.4917 21L15.6411 17.1409L16.3465 16.4329L18.9908 19.086V3ZM1.0415 12C1.0415 15.859 4.1825 19 8.0415 19C11.9005 19 15.0415 15.859 15.0415 12C15.0415 8.141 11.9005 5 8.0415 5C4.1825 5 1.0415 8.141 1.0415 12ZM2.0415 12C2.0415 8.691 4.7325 6 8.0415 6C11.3505 6 14.0415 8.691 14.0415 12C14.0415 15.309 11.3505 18 8.0415 18C4.7325 18 2.0415 15.309 2.0415 12ZM8.0415 12H11.0415V13H7.0415V7H8.0415V12Z"/>
  </symbol>
 </svg>
 <svg>
  <symbol id="date_DESC" viewBox="0 0 24 24">
   <path d="M18.9908 3H19.9885V19.086L22.6357 16.4329L23.3411 17.1409L19.4917 21L15.6411 17.1409L16.3465 16.4329L18.9908 19.086V3ZM11 19C12.104 19 13 18.104 13 17V10H14V17C14 18.654 12.654 20 11 20H4C2.346 20 1 18.654 1 17V10H2V17C2 18.104 2.896 19 4 19H11ZM12 5V7H14V8H1V7H3V5H4V7H11V5H12ZM6.5 12H4.5V13H6.5V12ZM8.5 12H10.5V13H8.5V12ZM6.5 15H4.5V16H6.5V15ZM8.5 15H10.5V16H8.5V15Z"/>
  </symbol>
 </svg>
 <svg>
  <symbol id="debt_DESC" viewBox="0 0 24 24">
   <path d="M17.9908 3H18.9885V19.086L21.6357 16.4329L22.3411 17.1409L18.4917 21L14.6411 17.1409L15.3465 16.4329L17.9908 19.086V3ZM2 19H8.53998L13 13.687V12.753L9.22498 13.768C7.91598 14.121 7.002 15.308 7 16.656V18H3V6H12V10H13V5H2V19ZM8.07397 18H8V16.657C8.002 15.759 8.61101 14.969 9.48401 14.734L11.203 14.272L8.07397 18Z"/>
  </symbol>
 </svg>
 <svg>
  <symbol id="deflection_DESC" viewBox="0 0 24 24">
   <path d="M18.9908 3H19.9885V19.086L22.6357 16.4329L23.3411 17.1409L19.4917 21L15.6411 17.1409L16.3465 16.4329L18.9908 19.086V3ZM1 20H15L8.00103 5L1 20ZM13.3926 18.9786H2.60843L8.00103 7.42472L13.3926 18.9786Z"/>
  </symbol>
 </svg>
 <svg>
  <symbol id="number_DESC" viewBox="0 0 24 24">
   <path d="M15.9908 3H16.9885V19.086L19.6357 16.4329L20.3411 17.1409L16.4917 21L12.6411 17.1409L13.3465 16.4329L15.9908 19.086V3ZM8.51589 11.4375H4.59958V10.6661H6.14565V5.6086L6.25571 4.99343L5.81219 5.48428L4.59958 6.30878L4.18076 5.7765L6.60826 4H7.00574V10.6651H8.51589V11.4375ZM4.64786 17.4141C4.44688 17.2366 4.28633 17.0178 4.16956 16.7575C4.05503 16.4971 3.99889 16.1986 4.00002 15.8639C4.00002 15.5366 4.04942 15.2317 4.15047 14.9502C4.25265 14.6686 4.40085 14.4252 4.5951 14.2212C4.79158 14.0141 5.03522 13.8526 5.32939 13.7368C5.62244 13.6209 5.9604 13.5625 6.3545 13.5625C7.09217 13.5625 7.66818 13.7888 8.07912 14.2404C8.49231 14.6941 8.7 15.3305 8.7 16.1507C8.7 16.9253 8.60683 17.601 8.42269 18.1812C8.23631 18.7592 7.98254 19.2479 7.65581 19.6442C7.33132 20.0416 6.94509 20.3519 6.50047 20.5739C6.05696 20.7971 5.57303 20.9373 5.05205 21L4.85558 20.3423C5.27662 20.2807 5.65275 20.1649 5.99071 19.9928C6.32642 19.8228 6.61611 19.607 6.85864 19.3467C7.09891 19.0875 7.29877 18.79 7.44923 18.4585C7.59968 18.1259 7.70522 17.7625 7.76361 17.3737C7.56936 17.5936 7.35377 17.7466 7.11799 17.8316C6.88108 17.9156 6.57344 17.9591 6.18944 17.9591C5.89415 17.9591 5.61234 17.9134 5.34961 17.821C5.08463 17.7275 4.85333 17.5936 4.64786 17.4141ZM6.29724 14.2818C5.85711 14.2818 5.51353 14.4135 5.26652 14.676C5.02175 14.9405 4.89825 15.3082 4.89937 15.781C4.89937 16.2687 5.03523 16.632 5.30582 16.8754C5.57641 17.1197 5.93346 17.2398 6.37471 17.2398C6.72727 17.2398 7.03156 17.1867 7.28643 17.0762C7.53906 16.9678 7.72093 16.8233 7.82984 16.6448C7.84332 16.5556 7.85119 16.4759 7.85119 16.4079V16.1922C7.85119 15.9457 7.82087 15.7077 7.75912 15.4793C7.69737 15.2487 7.60529 15.0447 7.48178 14.863C7.35603 14.6813 7.19884 14.5389 6.99899 14.4369C6.79913 14.3328 6.56559 14.2818 6.29724 14.2818Z"/>
  </symbol>
 </svg>
 <svg>
  <symbol id="partner_DESC" viewBox="0 0 24 24">
   <path d="M18.9908 3H19.9885V19.086L22.6357 16.4329L23.3411 17.1409L19.4917 21L15.6411 17.1409L16.3465 16.4329L18.9908 19.086V3ZM4.53917 8C4.53917 9.654 5.8676 11 7.5 11C9.1324 11 10.4608 9.654 10.4608 8C10.4608 6.346 9.1324 5 7.5 5C5.8676 5 4.53917 6.346 4.53917 8ZM5.52612 8C5.52612 6.896 6.41042 6 7.5 6C8.5886 6 9.47388 6.896 9.47388 8C9.47388 9.104 8.58958 10 7.5 10C6.41042 10 5.52612 9.104 5.52612 8ZM2.00272 15.225L1 19H14L12.9982 15.225C12.6508 13.915 11.4794 13 10.147 13H4.85398C3.52161 13 2.35013 13.915 2.00272 15.225ZM12.711 18H2.28699L2.95515 15.484C3.18609 14.61 3.96676 14 4.85205 14H10.145C11.0313 14 11.811 14.61 12.0419 15.484L12.711 18Z"/>
  </symbol>
 </svg>
 <svg>
  <symbol id="recall_DESC" viewBox="0 0 24 24">
   <path d="M18.9908 3H19.9885V19.086L22.6357 16.4329L23.3411 17.1409L19.4917 21L15.6411 17.1409L16.3465 16.4329L18.9908 19.086V3ZM1.67798 12.8764L8 19.2085L14.326 12.8764C15.891 11.3074 15.891 8.75509 14.326 7.18707C13.566 6.42709 12.558 6.00854 11.485 6.00854C10.412 6.00854 9.40201 6.42709 8.64301 7.18707L8.00098 7.82986L7.35999 7.18707C6.59999 6.42709 5.59101 6.00854 4.51801 6.00854C3.44501 6.00854 2.43598 6.42709 1.67798 7.18707C0.917979 7.94705 0.5 8.95735 0.5 10.0317C0.5 11.1071 0.917979 12.1174 1.67798 12.8764ZM2.38501 7.89495C2.95501 7.32421 3.71201 7.00984 4.51801 7.00984C5.32401 7.00984 6.082 7.32421 6.651 7.89495L7.99896 9.24569L9.34698 7.89495C9.91798 7.32421 10.677 7.00984 11.483 7.00984C12.289 7.00984 13.047 7.32521 13.617 7.89495C14.793 9.07347 14.793 10.9899 13.617 12.1685L8 17.7927L2.38501 12.1685C1.81401 11.5977 1.5 10.8398 1.5 10.0317C1.5 9.2247 1.81501 8.46568 2.38501 7.89495Z"/>
  </symbol>
 </svg>
 <svg>
  <symbol id="problem_DESC" viewBox="0 0 24 24">
   <path d="M18.9908 3H19.9885V19.086L22.6357 16.4329L23.3411 17.1409L19.4917 21L15.6411 17.1409L16.3465 16.4329L18.9908 19.086V3ZM5.09998 5H10.898L15.001 9.10101V14.9L10.899 19.001H5.10101L1 14.9V9.10101L5.09998 5ZM10.485 18L14 14.485H14.001V9.51398L10.486 5.99902H5.51398L2 9.51398V14.485L5.513 18H10.485ZM7 15C7 14.447 7.447 14 8 14C8.553 14 9 14.447 9 15C9 15.553 8.553 16 8 16C7.447 16 7 15.553 7 15ZM7.75 13L7 9V8H9V9L8.25201 13H7.75Z"/>
  </symbol>
 </svg>
 <svg>
  <symbol id="rating_DESC" viewBox="0 0 24 24">
   <path d="M18.9908 3H19.9885V19.086L22.6357 16.4329L23.3411 17.1409L19.4917 21L15.6411 17.1409L16.3465 16.4329L18.9908 19.086V3ZM8 17.0904L12.2866 20.2L13.3528 19.4241L11.7154 14.3959L16 11.2863L15.5955 10.0312H10.2989L8.66156 5H7.34144L5.70509 10.0292L0.407586 10.0282L0 11.2833L4.28363 14.3918L2.64728 19.4221L3.71343 20.199L8 17.0904ZM12.1059 18.8307L8 15.8514L3.8951 18.8297L5.46319 14.0099L1.35829 11.0317L6.43497 11.0327L8.00202 6.21494L9.57109 11.0337H14.6438L10.5379 14.0119L12.1059 18.8307Z"/>
  </symbol>
 </svg>
 <svg>
  <symbol id="timing_DESC" viewBox="0 0 24 24">
   <path d="M18.9908 3H19.9885V19.086L22.6357 16.4329L23.3411 17.1409L19.4917 21L15.6411 17.1409L16.3465 16.4329L18.9908 19.086V3ZM13 6H11.618L10.293 10.779C10.172 11.23 9.942 11.65 9.629 12C9.942 12.351 10.173 12.772 10.295 13.225L11.619 18H13V19H2V18H3.379L4.65399 13.226C4.77599 12.771 5.00701 12.351 5.32001 12C5.00701 11.65 4.77699 11.228 4.65399 10.775L3.379 6H2V5H13V6ZM9.32999 13.488C9.21299 13.054 8.95099 12.67 8.59299 12.399L8.06299 12.001L8.59299 11.602C8.95099 11.331 9.213 10.947 9.328 10.517L10.571 6.03699L4.423 6.03497L5.621 10.518C5.736 10.947 5.99701 11.331 6.35501 11.602L6.88599 12.001L6.35501 12.4C5.99601 12.671 5.736 13.055 5.621 13.485L4.423 17.967L10.571 17.965L9.32999 13.488Z"/>
  </symbol>
 </svg>
 <svg>
  <symbol id="sum_DESC" viewBox="0 0 24 24">
   <path d="M16.9908 3H17.9885V19.086L20.6357 16.4329L21.3411 17.1409L17.4917 21L13.6411 17.1409L14.3465 16.4329L16.9908 19.086V3ZM3 19H11V18H4V17.693L9.17603 12L4 6.30701V6H11V5H3V6.69299L7.82397 12L3 17.307V19Z"/>
  </symbol>
 </svg>
 <svg>
  <symbol id="price_DESC" viewBox="0 0 24 24">
   <path d="M16.9908 3H17.9885V19.086L20.6357 16.4329L21.3411 17.1409L17.4917 21L13.6411 17.1409L14.3465 16.4329L16.9908 19.086V3ZM12 9.00702C12 11.21 10.2052 12.989 8.001 12.989H5.00301V15H10.008V16H5.00301V19H4.002V16H2V15H4.002V5L8.001 5.013C10.2052 5.013 12 6.80502 12 9.00702ZM8.001 6H5.00301V12H8.001C9.65366 12 10.999 10.659 10.999 9.00702C10.999 7.35502 9.65366 6 8.001 6Z"/>
  </symbol>
 </svg>
 <svg>
  <symbol id="custom_DESC" viewBox="0 0 24 24">
   <path d="M3.079 4L12 18.15V4H13V20H11.921L3 5.84998V20H2V4H3.079ZM22 12V13H16V12H22ZM21 7C21 8.10457 20.1046 9 19 9C17.8954 9 17 8.10457 17 7C17 5.89543 17.8954 5 19 5C20.1046 5 21 5.89543 21 7ZM22 7C22 8.65685 20.6569 10 19 10C17.3431 10 16 8.65685 16 7C16 5.34315 17.3431 4 19 4C20.6569 4 22 5.34315 22 7Z"/>
  </symbol>
 </svg>
</svg>
